<?xml version="1.0" encoding="UTF-8" standalone="no"?>
<svg width="77px" height="77px" viewBox="0 0 77 77" version="1.1" xmlns="http://www.w3.org/2000/svg" xmlns:xlink="http://www.w3.org/1999/xlink" xmlns:sketch="http://www.bohemiancoding.com/sketch/ns">
    <!-- Generator: Sketch 3.4.4 (17249) - http://www.bohemiancoding.com/sketch -->
    <title>Slice 1</title>
    <desc>Created with Sketch.</desc>
    <defs></defs>
    <g id="Page-1" stroke="none" stroke-width="1" fill="none" fill-rule="evenodd" sketch:type="MSPage">
        <g id="icon" sketch:type="MSLayerGroup" transform="translate(0.000000, 2.000000)">
            <g id="Page-1" sketch:type="MSShapeGroup">
                <g id="icon">
                    <g id="Page-1">
                        <g id="logo">
                            <g id="Page-1">
                                <g id="Polygon-1">
                                    <g id="mask-2" fill="#000000">
                                        <path d="M10.9840608,0.689079421 C12.4427996,0.241186032 13.9930243,5.5067062e-14 15.6,5.5067062e-14 C24.215642,5.5067062e-14 31.2,6.93280281 31.2,15.4848485 C31.2,24.036894 24.215642,30.969697 15.6,30.969697 C6.9843579,30.969697 0,24.036894 0,15.4848485 C0,13.2914255 0.459442575,11.204519 1.28801263,9.3137774 L4.13392503,18.0079419 L15.9232178,18.0079419 L19.5663096,6.87842175 L10.9840608,0.689079421 L10.9840608,0.689079421 L10.9840608,0.689079421 L10.9840608,0.689079421 Z" id="path-1"></path>
                                    </g>
                                    <g id="Mask" fill="#337AB7">
                                        <path d="M10.9840608,0.689079421 C12.4427996,0.241186032 13.9930243,5.5067062e-14 15.6,5.5067062e-14 C24.215642,5.5067062e-14 31.2,6.93280281 31.2,15.4848485 C31.2,24.036894 24.215642,30.969697 15.6,30.969697 C6.9843579,30.969697 0,24.036894 0,15.4848485 C0,13.2914255 0.459442575,11.204519 1.28801263,9.3137774 L4.13392503,18.0079419 L15.9232178,18.0079419 L19.5663096,6.87842175 L10.9840608,0.689079421 L10.9840608,0.689079421 L10.9840608,0.689079421 L10.9840608,0.689079421 Z" id="path-1"></path>
                                    </g>
                                </g>
                                <rect id="Rectangle-1" fill="#337AB7" transform="translate(44.896728, 43.382854) rotate(-45.000000) translate(-44.896728, -43.382854) " x="39.8693905" y="8.62358979" width="10.0546744" height="69.518528"></rect>
                                <g id="Rectangle-1" transform="translate(8.914286, 5.424242)" fill="#337AB7">
                                    <g id="mask-4">
                                        <path d="M42.2818489,32.1212603 L67.2259166,7.36131716 L60.1161883,0.304069248 L35.1721204,25.0640122 L42.2818489,32.1212603 L42.2818489,32.1212603 L42.2818489,32.1212603 L42.2818489,32.1212603 Z M30.024706,44.2879269 L13.3817965,60.8079866 L0.591936319,66.4461907 L6.27206807,53.7507386 L22.9149775,37.2306789 L30.024706,44.2879269 L30.024706,44.2879269 L30.024706,44.2879269 L30.024706,44.2879269 Z" id="path-3"></path>
                                    </g>
                                    <g id="Mask">
                                        <path d="M67.2259166,7.36131716 L60.1161883,0.304069248 L35.1721204,25.0640122 L42.2818489,32.1212603 L67.2259166,7.36131716 L67.2259166,7.36131716 L67.2259166,7.36131716 Z M30.024706,44.2879269 L13.3817965,60.8079866 L0.591936319,66.4461907 L6.27206807,53.7507386 L22.9149775,37.2306789 L30.024706,44.2879269 L30.024706,44.2879269 L30.024706,44.2879269 L30.024706,44.2879269 Z" id="path-3"></path>
                                    </g>
                                </g>
                            </g>
                        </g>
                    </g>
                </g>
            </g>
        </g>
    </g>
</svg>